<?xml version="1.0" encoding="UTF-8" standalone="no"?>
<svg
   xmlns:dc="http://purl.org/dc/elements/1.1/"
   xmlns:cc="http://creativecommons.org/ns#"
   xmlns:rdf="http://www.w3.org/1999/02/22-rdf-syntax-ns#"
   xmlns:svg="http://www.w3.org/2000/svg"
   xmlns="http://www.w3.org/2000/svg"
   xmlns:sodipodi="http://sodipodi.sourceforge.net/DTD/sodipodi-0.dtd"
   xmlns:inkscape="http://www.inkscape.org/namespaces/inkscape"
   width="101.55605"
   height="74.753883"
   id="svg2"
   version="1.1"
   inkscape:version="0.48.5 r10040"
   sodipodi:docname="blackhat.svg"
   inkscape:export-filename="/home/henning/workspace/insekta/insekta/insekta/scenarios/static/scenarios/images/blackhat.png"
   inkscape:export-xdpi="32.506672"
   inkscape:export-ydpi="32.506672">
  <metadata
     id="metadata19">
    <rdf:RDF>
      <cc:Work
         rdf:about="">
        <dc:format>image/svg+xml</dc:format>
        <dc:type
           rdf:resource="http://purl.org/dc/dcmitype/StillImage" />
        <dc:title></dc:title>
      </cc:Work>
    </rdf:RDF>
  </metadata>
  <defs
     id="defs17" />
  <sodipodi:namedview
     pagecolor="#ffffff"
     bordercolor="#666666"
     borderopacity="1"
     objecttolerance="10"
     gridtolerance="10"
     guidetolerance="10"
     inkscape:pageopacity="0"
     inkscape:pageshadow="2"
     inkscape:window-width="956"
     inkscape:window-height="1041"
     id="namedview15"
     showgrid="false"
     fit-margin-top="0"
     fit-margin-left="0"
     fit-margin-right="0"
     fit-margin-bottom="0"
     inkscape:zoom="1.84375"
     inkscape:cx="61.950787"
     inkscape:cy="27.241775"
     inkscape:window-x="960"
     inkscape:window-y="37"
     inkscape:window-maximized="0"
     inkscape:current-layer="svg2" />
  <g
     id="layer1"
     transform="matrix(0.83129405,0,0,1,-3.5069802,-16.487891)"
     inkscape:export-xdpi="36.118526"
     inkscape:export-ydpi="36.118526"
     inkscape:export-filename="/home/henning/workspace/insekta/insekta/insekta/scenarios/static/scenarios/images/blackhat.png">
    <g
       id="g2055"
       style="fill-rule:evenodd">
      <path
         id="path4735"
         d="m 60.031,17.344 c -4.5029,1.5548 -9.4695,-2.2031 -13.828,1.3475 -9.3804,6.2271 -8.5382,19.35 -10.172,29.309 -3.2832,1.9871 -0.79288,6.4167 -3.3125,9.125 1.3297,5.1577 -4.225,4.8332 -7.9688,5.625 -6.8099,1.6327 -14.651,0.20877 -20.531,4.5938 0.96955,11.441 14.124,15.448 23.453,18.209 25.754,6.3926 53.143,7.6021 79.244,2.5831 8.0337,-1.7808 19.846,-5.2801 19.46,-15.448 -1.8408,-9.7777 -14.074,-12.205 -22.438,-10.344 -4.2643,-10.026 -2.797,-21.352 -6.4688,-31.562 -6.614,-14.084 -23.884,-15.738 -37.438,-13.438 z"
         inkscape:connector-curvature="0" />
      <path
         id="path1295"
         d="m 100.81,63.125 c -19.778,6.183 -67.274,8.6804 -91.312,3.6875 -1.6649,0.36861 -2.8539,0.8184 -3.0938,1.5 0.67923,24.113 112.44,28.19 117.53,7.8125 3.0565,-7.981 -8.3393,-15.111 -22.094,-11.375 -0.3825,-0.135 -0.73111,-0.74206 -1.0312,-1.625 z"
         inkscape:connector-curvature="0" />
      <path
         id="path2102"
         d="m 67.781,18.5 c -5.7738,0.25969 -10.415,1.3679 -11.625,1.75 -1.1887,-0.67923 -2.9046,-2.0442 -7.2812,-0.65625 -10.726,2.7916 -10.012,26.195 -11.938,37.906 20.471,-1.5066 43.37,-0.26974 63.125,2.4688 -1.3933,-7.8555 -2.0325,-23.09 -4.3125,-28.156 -5.5188,-11.78 -18.346,-13.745 -27.969,-13.312 z"
         inkscape:connector-curvature="0" />
      <path
         id="path1294"
         d="m 47.314,60.526 c -5.8712,0.10265 -9.9088,0.41095 -10.673,0.96283 -0.16195,0.11696 -0.3854,0.23447 -0.62931,0.35241 -0.0751,0.21464 -0.13867,0.47522 -0.22025,0.66706 -8.8986,3.8994 -27.884,3.5151 -29.152,5.4575 31.615,10.085 92.146,-1.1907 96.792,-3.4887 0.77358,-3.417 -42.263,-4.1934 -56.118,-3.9511 z"
         inkscape:connector-curvature="0" />
      <path
         id="path1306"
         d="m 47.314,60.054 c -5.8712,0.10265 -9.9088,0.41095 -10.673,0.96283 -0.16195,0.11696 -0.3854,0.23447 -0.62931,0.35241 -0.0751,0.21464 -0.13867,0.47522 -0.22025,0.66706 -8.8986,3.8994 -24.135,3.4318 -28.319,5.3742 35.102,9.8802 98.657,-3.9336 95.792,-3.1555 0.19042,-3.2504 -42.096,-4.4433 -55.952,-4.201 z"
         inkscape:connector-curvature="0" />
      <path
         id="path1316"
         d="m 50.567,19.416 c 9.2829,7.5848 -0.96225,28.924 -4.7546,33.452 -6.7923,9.5093 22.754,8.83 20.886,0.84904 -9.6791,-4.415 -9.8489,-16.132 -9.5093,-31.754 -1.5639,-1.677 -3.7358,-0.50943 -6.6225,-2.5471 z"
         inkscape:connector-curvature="0" />
      <path
         id="path1310"
         d="m 36.473,50.107 c 19.471,-13.868 47.773,-0.52201 62.999,5.3081 1.1106,1.0931 3.8595,8.2728 3.1504,8.1456 -13.57,-2.2219 -54.44,-3.8859 -67.515,-1.1689 -0.59433,0.25471 -1.1662,-5.3395 0.38953,-6.5309 1.8435,-1.5825 -0.13482,-4.3804 0.97601,-5.7538 z"
         inkscape:connector-curvature="0" />
      <path
         id="path1312"
         d="M 63.306,31.506 C 61.1002,11.54 89.187,19.55 89.204,37.7673 85.426,27.2573 68.027,19.0153 63.306,31.506 z"
         inkscape:connector-curvature="0" />
      <path
         id="path1314"
         d="m 50.719,21.344 c -4.5642,0.27579 -9.8279,13.812 -8.3826,13.438 2.4276,-7.6468 9.721,-14.5 10.135,-4.6184 0.84692,-2.7568 1.4172,-7.3888 -1.7524,-8.8194 z"
         inkscape:connector-curvature="0" />
    </g>
  </g>
  <g
     inkscape:export-filename="/home/henning/workspace/insekta/insekta/insekta/scenarios/static/scenarios/images/blackhat.png"
     inkscape:export-ydpi="36.118526"
     inkscape:export-xdpi="36.118526"
     transform="matrix(0.83129405,0,0,1,-3.5069802,-16.487891)"
     id="g2992">
    <g
       style="fill-rule:evenodd"
       id="g2994">
      <path
         inkscape:connector-curvature="0"
         d="m 60.031,17.344 c -4.5029,1.5548 -9.4695,-2.2031 -13.828,1.3475 -9.3804,6.2271 -8.5382,19.35 -10.172,29.309 -3.2832,1.9871 -0.79288,6.4167 -3.3125,9.125 1.3297,5.1577 -4.225,4.8332 -7.9688,5.625 -6.8099,1.6327 -14.651,0.20877 -20.531,4.5938 0.96955,11.441 14.124,15.448 23.453,18.209 25.754,6.3926 53.143,7.6021 79.244,2.5831 8.0337,-1.7808 19.846,-5.2801 19.46,-15.448 -1.8408,-9.7777 -14.074,-12.205 -22.438,-10.344 -4.2643,-10.026 -2.797,-21.352 -6.4688,-31.562 -6.614,-14.084 -23.884,-15.738 -37.438,-13.438 z"
         id="path2996" />
      <path
         inkscape:connector-curvature="0"
         d="m 100.81,63.125 c -19.778,6.183 -67.274,8.6804 -91.312,3.6875 -1.6649,0.36861 -2.8539,0.8184 -3.0938,1.5 0.67923,24.113 112.44,28.19 117.53,7.8125 3.0565,-7.981 -8.3393,-15.111 -22.094,-11.375 -0.3825,-0.135 -0.73111,-0.74206 -1.0312,-1.625 z"
         id="path2998" />
      <path
         inkscape:connector-curvature="0"
         d="m 67.781,18.5 c -5.7738,0.25969 -10.415,1.3679 -11.625,1.75 -1.1887,-0.67923 -2.9046,-2.0442 -7.2812,-0.65625 -10.726,2.7916 -10.012,26.195 -11.938,37.906 20.471,-1.5066 43.37,-0.26974 63.125,2.4688 -1.3933,-7.8555 -2.0325,-23.09 -4.3125,-28.156 -5.5188,-11.78 -18.346,-13.745 -27.969,-13.312 z"
         id="path3000" />
      <path
         inkscape:connector-curvature="0"
         d="m 47.314,60.526 c -5.8712,0.10265 -9.9088,0.41095 -10.673,0.96283 -0.16195,0.11696 -0.3854,0.23447 -0.62931,0.35241 -0.0751,0.21464 -0.13867,0.47522 -0.22025,0.66706 -8.8986,3.8994 -27.884,3.5151 -29.152,5.4575 31.615,10.085 92.146,-1.1907 96.792,-3.4887 0.77358,-3.417 -42.263,-4.1934 -56.118,-3.9511 z"
         id="path3002" />
      <path
         inkscape:connector-curvature="0"
         d="m 47.314,60.054 c -5.8712,0.10265 -9.9088,0.41095 -10.673,0.96283 -0.16195,0.11696 -0.3854,0.23447 -0.62931,0.35241 -0.0751,0.21464 -0.13867,0.47522 -0.22025,0.66706 -8.8986,3.8994 -24.135,3.4318 -28.319,5.3742 35.102,9.8802 98.657,-3.9336 95.792,-3.1555 0.19042,-3.2504 -42.096,-4.4433 -55.952,-4.201 z"
         id="path3004" />
      <path
         inkscape:connector-curvature="0"
         d="m 50.567,19.416 c 9.2829,7.5848 -0.96225,28.924 -4.7546,33.452 -6.7923,9.5093 22.754,8.83 20.886,0.84904 -9.6791,-4.415 -9.8489,-16.132 -9.5093,-31.754 -1.5639,-1.677 -3.7358,-0.50943 -6.6225,-2.5471 z"
         id="path3006" />
      <path
         inkscape:connector-curvature="0"
         d="m 36.473,50.107 c 19.471,-13.868 47.773,-0.52201 62.999,5.3081 1.1106,1.0931 3.8595,8.2728 3.1504,8.1456 -13.57,-2.2219 -54.44,-3.8859 -67.515,-1.1689 -0.59433,0.25471 -1.1662,-5.3395 0.38953,-6.5309 1.8435,-1.5825 -0.13482,-4.3804 0.97601,-5.7538 z"
         id="path3008" />
      <path
         inkscape:connector-curvature="0"
         d="M 63.306,31.506 C 61.1002,11.54 89.187,19.55 89.204,37.7673 85.426,27.2573 68.027,19.0153 63.306,31.506 z"
         id="path3010" />
      <path
         inkscape:connector-curvature="0"
         d="m 50.719,21.344 c -4.5642,0.27579 -9.8279,13.812 -8.3826,13.438 2.4276,-7.6468 9.721,-14.5 10.135,-4.6184 0.84692,-2.7568 1.4172,-7.3888 -1.7524,-8.8194 z"
         id="path3012" />
    </g>
  </g>
</svg>
