<?xml version="1.0" encoding="UTF-8" standalone="no"?>
<!-- Created with Inkscape (http://www.inkscape.org/) -->

<svg
   xmlns:dc="http://purl.org/dc/elements/1.1/"
   xmlns:cc="http://creativecommons.org/ns#"
   xmlns:rdf="http://www.w3.org/1999/02/22-rdf-syntax-ns#"
   xmlns:svg="http://www.w3.org/2000/svg"
   xmlns="http://www.w3.org/2000/svg"
   xmlns:sodipodi="http://sodipodi.sourceforge.net/DTD/sodipodi-0.dtd"
   xmlns:inkscape="http://www.inkscape.org/namespaces/inkscape"
   width="32.590904"
   height="33.882401"
   id="svg3009"
   version="1.1"
   inkscape:version="0.48.5 r10040"
   sodipodi:docname="hint.svg"
   inkscape:export-filename="/home/henning/workspace/Insekta/insekta/scenario/static/hint.png"
   inkscape:export-xdpi="132.81232"
   inkscape:export-ydpi="132.81232">
  <defs
     id="defs3011" />
  <sodipodi:namedview
     id="base"
     pagecolor="#ffffff"
     bordercolor="#666666"
     borderopacity="1.0"
     inkscape:pageopacity="0.0"
     inkscape:pageshadow="2"
     inkscape:zoom="6.5333333"
     inkscape:cx="22.211392"
     inkscape:cy="0.64574938"
     inkscape:document-units="px"
     inkscape:current-layer="layer1"
     showgrid="false"
     fit-margin-top="0"
     fit-margin-left="0"
     fit-margin-right="0"
     fit-margin-bottom="0"
     inkscape:window-width="956"
     inkscape:window-height="1041"
     inkscape:window-x="960"
     inkscape:window-y="37"
     inkscape:window-maximized="0" />
  <metadata
     id="metadata3014">
    <rdf:RDF>
      <cc:Work
         rdf:about="">
        <dc:format>image/svg+xml</dc:format>
        <dc:type
           rdf:resource="http://purl.org/dc/dcmitype/StillImage" />
        <dc:title></dc:title>
      </cc:Work>
    </rdf:RDF>
  </metadata>
  <g
     inkscape:label="Layer 1"
     inkscape:groupmode="layer"
     id="layer1"
     transform="translate(-9.4188347,-175.42098)">
    <g
       id="svg_31"
       transform="matrix(0.99330842,0.11549194,-0.11549194,0.99330842,-117.8177,3.1339475)">
      <path
         id="svg_32"
         d="m 169.8,154.96 c -0.0691,7.6e-4 -0.13968,0.005 -0.20956,0.01 -2.7909,0.49849 -4.3257,3.5516 -4.5478,6.2441 -0.32507,2.4437 0.71558,5.5837 3.3086,6.1309 0.3765,0.0742 0.76704,0.0405 1.1347,-0.063 3.1218,-1.0832 4.5192,-4.9091 4.0683,-8.0776 -0.13162,-2.0471 -1.6223,-4.2727 -3.7543,-4.2442 z m -11.832,0.1312 c -1.7354,0.0435 -3.0872,1.865 -3.3622,3.5763 -0.57974,3.3911 0.91138,7.6054 4.3263,8.6773 0.31982,0.072 0.65073,0.0795 0.97385,0.0277 2.3081,-0.39803 3.2859,-3.0748 3.1893,-5.2366 -0.0695,-2.8507 -1.501,-6.14741 -4.3628,-6.9495 -0.26163,-0.0719 -0.51657,-0.10194 -0.7645,-0.0952 z m 19.394,9.6315 c -3.002,0.1859 -5.0596,3.2854 -5.353,6.1789 -0.39789,2.0868 0.67804,4.8791 2.9799,5.0455 3.2094,-0.0412 5.3987,-3.589 5.4899,-6.6421 0.203,-2.0194 -0.94647,-4.4706 -3.1167,-4.5823 z m -26.276,0.6881 c -1.2772,-0.012 -2.5334,0.77959 -2.9507,2.1228 -1.1135,3.5935 1.1225,8.1443 4.801,8.8991 1.5353,0.27212 2.8842,-0.94746 3.2649,-2.4152 0.80667,-3.1393 -0.85022,-6.7838 -3.6544,-8.2088 -0.45682,-0.26537 -0.96103,-0.39356 -1.4608,-0.39804 z m 13.458,6.4427 c -2.5036,0.006 -5.0467,1.32 -6.6681,3.2772 -1.7512,2.281 -3.1857,4.9353 -3.7469,7.8137 -0.68179,2.0719 0.86356,4.4563 3.0043,4.4706 2.5756,0.0742 4.789,-1.7555 7.3501,-1.8912 2.1727,-0.34331 4.1186,0.82605 6.0718,1.5914 1.6635,0.73612 3.9617,0.45425 4.811,-1.398 0.66779,-1.8875 -0.31546,-3.9001 -1.1296,-5.5762 -1.6613,-2.721 -3.441,-5.5807 -6.165,-7.28 -1.0914,-0.70013 -2.3048,-1.0097 -3.5278,-1.0074 z"
         inkscape:connector-curvature="0" />
    </g>
  </g>
</svg>
